<svg xmlns="http://www.w3.org/2000/svg" width="184" height="284" fill="none"><path fill="#24A556" d="M135.732 281.764c.404.075.836-.051 1.123-.403.27-.392.53-.544 1.027-.507.885.071 1.589-.306 2.324-.743.351-.199.69-.376 1.041-.472.418-.114.856-.232 1.199-.497.478-.368.748-.945.67-1.543-.275-2.111-.791-4.139-1.761-6.092-2.247-4.4-4.525-8.741-7.032-12.99-2.668-4.515-4.938-9.238-8.311-13.376-1.369-1.676-2.677-3.47-3.509-5.409-1.437-3.447-3.378-6.551-5.549-9.561-.718-.99-1.101-2.21-1.605-3.333-.665-1.39-1.146-2.854-1.932-4.148-2.301-4-4.787-7.926-6.995-11.963-1.517-2.847-2.913-5.791-3.969-8.823-.412-1.16-.808-2.279-1.618-3.232-1.556-1.743-2.683-3.752-3.596-5.895-1.238-2.817-2.736-5.483-4.066-8.263-.246-.613.76-.974 1.332-.644 1.396.804 1.587 1.042 2.286 2.459 1.537 3.029 2.797 6.168 4.564 9.104 7.247 12.194 13.883 24.727 21.453 36.791 2.646 4.193 4.894 8.594 7.661 12.69 2.929 4.364 6.315 8.402 8.433 13.28.554 1.246 1.522 2.325 2.428 3.382 1.43 1.698 3.421 2.793 5.637 3.513 1.903.609 3.688-.012 4.968-1.757.481-.666.868-1.437.991-2.197.356-2.178.943-4.449.727-6.588-.412-4.095-.318-8.394-3.442-11.779-1.317-1.413-2.286-3.296-1.746-5.549.173-.637-.157-1.593-.601-2.031-3.792-3.449-4.906-8.493-8.086-12.283-.446-.578-.619-1.408-.667-2.194-.108-1.471-.751-2.539-1.643-3.696-1.181-1.609-1.888-3.503-2.762-5.283-.39-.837-.734-1.694-1.153-2.472-1.288-2.276-3.143-4.231-3.449-6.995-.297-3.006-3.897-3.976-4.638-6.755-.254-1.034-.509-2.069-.701-3.08-.12-.567-.059-1.349-.453-1.665-2.495-2.31-3.424-6.406-4.886-9.476-.133-.28-.261-.567-.386-.859-1.905-4.348-3.781-8.756-6.454-12.749a4.923 4.923 0 0 1-.86-2.542c-.091-2.094-.485-3.877-2.509-5.053-.565-.341-.833-1.275-.91-2.002-.032-.745.273-1.719 1.309-1.803.573-.041 1.461.171 1.763.523 1.502 2.143 3.646 3.886 4.154 6.618.211 1.193 1.084 2.169 1.68 3.255 1.193 2.172 2.416 4.285 3.655 6.439 1.402 2.562 2.439 5.412 4.346 7.63 1.939 2.299 3.019 4.99 4.619 7.377 3.204 4.916 5.137 10.532 9.305 14.919 1.237 1.35 2.05 3.107 2.859 4.723 3.024 5.935 6.17 11.774 10.784 16.739.302.352.558.723.876 1.116 2.955 4.164 5.818 8.364 8.912 12.472 2.057 2.726 4.357 5.258 6.506 7.946 1.831 2.296 3.939 4.48 5.371 6.982.928 1.634 3.039 2.109 4.723 1.276.8-.396 1.594-.79 2.375-1.189.307-.171.646-.259.968-.389 1.54-.55 1.956-2.378.868-3.599-3.122-3.503-5.821-7.294-8.281-11.273-.738-1.172-1.597-2.247-2.473-3.363-2.087-2.666-4.938-4.836-6.062-8.172-.232-.712-.925-1.238-1.434-1.839-1.575-1.924-3.18-3.79-4.755-5.714-2.464-2.94-3.354-6.891-6.2-9.584-2.213-2.047-2.301-5.467-5.308-6.959-.345-.193-.574-.764-.583-1.186.011-2.372-1.495-3.992-2.864-5.668-.764-.972-1.667-1.888-2.247-2.933-1.819-3.2-3.47-6.514-5.335-9.695-1.77-3.077-4.123-5.872-5.415-9.094-2.15-5.623-6.232-10.328-7.845-16.214-.235-.853-.78-1.676-1.354-2.439-4.386-5.862-6.825-12.742-10.138-19.129-2.018-3.83-3.483-7.881-5.364-11.766-1.863-3.844-4.494-7.333-6.114-11.37-1.653-4.118-4.227-7.866-6.249-11.837-4.547-9.063-8.112-18.616-13.166-27.476-.482-.8-.596-1.75-.893-2.624-.298-.875-.457-1.805-.939-2.606-3.098-5.053-4.721-10.698-6.897-16.121-2.062-5.138-4.677-10.053-6.647-15.228-2.296-5.99-6.466-11.181-8.059-17.549-.303-1.156-1.176-2.131-1.819-3.2-.482-.8-1.01-1.582-1.337-2.398-1.21-3.017-2.267-6.049-3.478-9.066a11.896 11.896 0 0 0-1.61-2.81C49.67.63 48.473.448 46.952 1.058c-2.35.944-4.193 2.488-5.72 4.284-1.24 1.444-1.914 3.23-1.615 4.909.51 2.872.25 5.959 2.423 8.306.493.56.758 1.353 1.036 2.046 2.243 6.39 4.44 12.8 6.746 19.212 3.545 10.034 7.028 20.046 10.665 30.043a717.077 717.077 0 0 0 8.284 21.577c4.418 11.009 8.668 22.133 13.547 32.957 4.88 10.824 8.652 22.092 14.483 32.487.596 1.086.916 2.284 1.328 3.444.025.08.046.161.061.241.192 1.013-1.279.459-1.662-.498-1.513-3.37-2.842-6.813-4.569-10.049-1.307-2.458-2.967-4.727-4.748-6.9-2.356-2.937-3.73-6.362-5.013-9.824-.657-1.772-1.45-3.347-2.888-4.664-.68-.627-1.547-1.32-1.657-2.128-.506-3.395-2.458-6.257-3.286-9.523-.555-2.049-1.818-3.862-2.712-5.823-1.785-3.781-3.692-7.466-5.2-11.358-1.721-4.422-3.103-8.933-5.562-13.06-1.334-2.257-2.5-4.63-3.65-6.961-2.139-4.397-4.156-8.89-6.45-13.272a439.19 439.19 0 0 0-8.52-15.896c-3.883-7.01-7.859-13.983-11.956-20.86-1.511-2.566-4.506-3.495-7.768-.955-.656.5-1.23 1.204-1.773 1.848-.399.472-.79.94-1.185 1.418-1.383 1.671-2.12 3.805-1.91 5.964.318 3.25 1.036 6.414 2.879 9.416 2.072 3.43 3.3 7.292 4.882 10.965 2.249 5.205 4.514 10.45 6.717 15.673 2.61 6.102 5.219 12.203 7.857 18.245 3.16 7.206 6.395 14.335 9.508 21.56 2.705 6.205 5.333 12.488 8.037 18.693 3.048 7.062 6.159 14.146 9.16 21.226.414 1.03-.918.542-1.243-.52-.696-2.28-1.692-4.429-3.348-6.254-.492-.56-.665-1.39-1.035-2.046-.76-1.494-1.537-3.029-2.297-4.523-.596-1.086-1.239-2.154-1.789-3.258-2.343-4.504-4.64-9.027-6.982-13.531-.324-.675-.879-1.257-1.312-1.936-1.41-2.179-2.912-4.322-4.154-6.617-1.887-3.503-3.607-7.121-5.402-10.662-1.376-2.761-3.166-5.357-4.019-8.281-.902-3.047-2.597-5.538-4.28-8.13-.832-1.275-1.606-2.67-1.978-4.13-1.113-4.24-3.299-7.954-5.255-11.762-1.196-2.313-2.698-4.456-2.926-7.157-.1-1.05-.755-2.017-1.194-2.977-1.009-2.246-2.11-4.456-3.118-6.702-.96-2.124-1.764-4.263-2.77-6.369-1.038-2.187-5.756-3.276-7.891-1.662-1.77 1.326-3.236 3.004-4.595 4.685-.966 1.192.05 2.394.262 3.587.072.445.16.93.139 1.412-.233 7.29 1.526 14.206 3.269 21.08 3.135 12.614 7.346 24.842 13.111 36.541 5.248 10.677 10.203 21.423 15.358 32.136 5.226 10.894 10.85 21.581 16.794 32.14a.166.166 0 0 0 .111.075c.021.004.047.001.067.007.089.029.179.045.267.056.268.03.526-.112.687-.329l.07-.096a.96.96 0 0 1 .703-.406c.94-.056 1.845.113 2.714-.379.098-.056.14-.235.062-.316-.04-.042-.072-.024-.13-.035-.259-.051-.631-.018-.434-.478.192-.456.577-.563 1.001-.307.175.092.352.192.542.303.367.213.867-.13 1.119-.472a.609.609 0 0 0 .077-.638c-.582-1.269-1.048-2.552-1.528-3.869-.726-2.076-1.817-3.863-2.85-5.768-2.759-5.142-6.545-9.777-7.678-15.666-.071-.445-.297-.875-.553-1.246-2.857-3.919-4.226-8.53-6.484-12.689-1.08-2.028-1.856-4.226-2.631-6.424-1.266-3.421-1.887-7.102-4.305-10.061-.446-.578-.866-1.356-.85-2.12.006-1.849-1.06-3.173-1.958-4.611-.577-.905-1.418-1.798-1.61-2.81-.729-3.684-2.703-6.869-3.784-10.364-.039-.134-.12-.275-.189-.418-.36-.742.983-.69 1.374.037 3.562 6.476 7.14 12.994 10.657 19.489 4.824 8.952 9.555 17.942 14.379 26.895 1.192 2.172 2.461 4.267 3.654 6.439 2.435 4.468 4.61 9.086 7.397 13.365 1.703 2.613 3.27 5.239 4.803 7.916.17.296.528.401.861.476a.763.763 0 0 1 .065.018c.23.069.314.375.205.589-.138.273-.187.575-.036.841 2.452 4.324 4.845 8.71 7.508 12.9 4.955 7.812 8.868 16.23 13.654 24.157 3.131 5.134 6.232 10.328 9.455 15.426 3.128 4.994 6.408 9.832 9.582 14.807 2.787 4.279 5.482 8.594 8.315 12.854 3.649 6.158 7.568 11.923 11.487 17.688l3.258 4.674c.086.122.244.152.393.157.936-.06 1.681-.492 2.403-.966 1.337-.88 2.743-1.937 4.333-2.116.681-.036 1.281-.277 1.844-.74.61-.481 1.393-.795 2.177-1.11.23-.092.684.104.812.29.223.289-.143.578-.403.729-.122.097-.231.093-.369.148-2.18.97-4.376 1.898-6.585 2.927-2.022.887-2.601 3.556-1.314 5.35l.082.115c.149.162.35.216.534.096a5.495 5.495 0 0 0 1.076-.884c.472-.426.93-.752 1.63-.607Zm-1.59-101.44c.32.796-.496 1.337-.905.583a6.208 6.208 0 0 1-.227-.464.527.527 0 0 1 .279-.688.557.557 0 0 1 .745.301l.108.268Zm-2.562-3.673c.114.061.111.214.025.311l-.065.074a.173.173 0 0 1-.291-.053.217.217 0 0 1 .03-.201l.057-.082c.047-.067.129-.102.205-.069a.72.72 0 0 1 .039.02Zm-3.674-6.526a.196.196 0 0 1-.108.258.2.2 0 0 1-.259-.111l-.497-1.239c-.028-.069.024-.156.093-.184.061-.024.113.005.147.061.231.375.443.787.624 1.215Zm-30.655-38.869a.342.342 0 0 1-.138-.553c.124-.132.329-.127.465-.007.092.081.182.168.258.271.028.038.04.083.016.123a1.217 1.217 0 0 1-.128.171c-.077.086-.195.094-.304.056l-.169-.061Zm2.417 5.117c-.026-.429.44-.948.797-.707.042.029.047.057.069.102l.684 1.423c1.163 2.422-.811 3.551-1.328.914a13.045 13.045 0 0 1-.222-1.732Zm-30.736 22.965c-.01-.02 0-.044.008-.065a.42.42 0 0 1 .056-.098c.118-.159.44-.109.459.088a.104.104 0 0 1-.002.038c-.045.175-.338.207-.474.089a.192.192 0 0 1-.047-.052Zm15.302 4.832a.108.108 0 1 1 .215.014.108.108 0 0 1-.216-.014Zm1.933 4.624a.347.347 0 0 1-.102-.359c.066-.235.358-.345.541-.184a.692.692 0 0 1 .2.261.276.276 0 0 1 .015.118c-.016.285-.41.374-.626.188a3.483 3.483 0 0 1-.028-.024Zm4.124 9.503c-.579-.79.735-1.796 1.002-.853.016.056.031.114.046.174.182.73-.603 1.286-1.048.679Zm50.962 97.89c.28.1.56.2.508.473-.045.236-.271.326-.51.3-.441-.047-.861-.592-.459-.777.133-.062.285-.058.461.004Zm-4.012 2.026c.001-.028.017-.043.045-.042l.035.003c.05.005.071.066.029.096l-.021.014c-.04.027-.091-.023-.088-.071Zm1.413-.349c.255.018.365.497.131.6a.084.084 0 0 1-.04.008.399.399 0 0 1-.211-.044c-.15-.076-.16-.284-.066-.422a.602.602 0 0 1 .095-.111.112.112 0 0 1 .091-.031Zm-6.906 3.018c-.059-.046-.076-.135-.027-.191l.015-.016a.06.06 0 0 1 .047-.012c.027.003.051.01.075.017.074.024.096.151.049.212-.028.036-.068.044-.108.023a.452.452 0 0 1-.051-.033Zm3.087-.941c-.033-.041-.008-.065.007-.115.051-.164.186-.335.299-.495.018-.025.031-.043.062-.046.086-.008.198.036.24.113.025.047.047.093.045.126 0 .014-.007.027-.011.04a2.524 2.524 0 0 1-.105.258c-.094.194-.404.289-.537.119Z"/></svg>