<svg width="293" height="54" viewBox="0 0 293 54" fill="none" xmlns="http://www.w3.org/2000/svg">
<g clip-path="url(#clip0_1_4786)">
<path d="M230.291 45.8728C230.161 45.8704 230.038 45.8177 229.947 45.7257C229.856 45.6338 229.804 45.5099 229.803 45.3805V40.8851C229.804 40.7557 229.856 40.6318 229.947 40.5399C230.038 40.4479 230.161 40.3952 230.291 40.3928H240.533C240.663 40.394 240.788 40.4462 240.88 40.5383C240.972 40.6304 241.024 40.7549 241.025 40.8851V45.3805C241.024 45.5107 240.972 45.6352 240.88 45.7273C240.788 45.8194 240.663 45.8716 240.533 45.8728H230.291ZM243.441 40.8851C243.439 40.1171 243.132 39.3811 242.589 38.838C242.046 38.2949 241.31 37.9888 240.542 37.9863H227.396V53.9986H229.803V48.2333C229.964 48.2594 230.127 48.2733 230.291 48.2747H235.771L240.579 53.9986H243.441V53.6673L238.918 48.2747H240.542C241.31 48.2735 242.046 47.9683 242.589 47.4259C243.132 46.8836 243.439 46.1481 243.441 45.3805V40.8851Z" fill="white"/>
<path d="M205.496 51.5972C205.366 51.5948 205.243 51.542 205.152 51.45C205.061 51.3581 205.009 51.2342 205.008 51.1048V40.8395C205.009 40.7101 205.061 40.5862 205.152 40.4943C205.243 40.4023 205.366 40.3495 205.496 40.3472H215.743C215.872 40.3495 215.995 40.4023 216.087 40.4943C216.178 40.5862 216.229 40.7101 216.23 40.8395V51.1048C216.229 51.2342 216.178 51.3581 216.087 51.45C215.995 51.542 215.872 51.5948 215.743 51.5972H205.496ZM205.496 37.9453C205.116 37.9447 204.739 38.0192 204.387 38.1644C204.036 38.3096 203.717 38.5228 203.448 38.7916C203.179 39.0605 202.966 39.3798 202.821 39.7312C202.675 40.0826 202.601 40.4593 202.602 40.8395V51.1048C202.601 51.4851 202.675 51.8617 202.821 52.2131C202.966 52.5645 203.179 52.8838 203.448 53.1527C203.717 53.4215 204.036 53.6347 204.387 53.7799C204.739 53.9252 205.116 53.9996 205.496 53.999H215.743C216.123 53.9996 216.5 53.9252 216.851 53.7799C217.202 53.6347 217.522 53.4215 217.791 53.1527C218.059 52.8838 218.273 52.5645 218.418 52.2131C218.563 51.8617 218.637 51.4851 218.637 51.1048V40.8395C218.637 40.4593 218.563 40.0826 218.418 39.7312C218.273 39.3798 218.059 39.0605 217.791 38.7916C217.522 38.5228 217.202 38.3096 216.851 38.1644C216.5 38.0192 216.123 37.9447 215.743 37.9453H205.496Z" fill="white"/>
<path d="M101.666 51.5972C101.536 51.5948 101.413 51.542 101.322 51.4501C101.231 51.3581 101.179 51.2343 101.178 51.1048V40.8395C101.179 40.7101 101.231 40.5862 101.322 40.4943C101.413 40.4023 101.536 40.3496 101.666 40.3472H111.908C112.038 40.3484 112.163 40.4006 112.255 40.4927C112.347 40.5848 112.399 40.7093 112.4 40.8395V51.1048C112.399 51.235 112.347 51.3596 112.255 51.4516C112.163 51.5437 112.038 51.596 111.908 51.5972H101.666ZM101.666 37.9453C101.285 37.9447 100.909 38.0192 100.557 38.1644C100.206 38.3096 99.8867 38.5228 99.6178 38.7917C99.3489 39.0605 99.1358 39.3798 98.9905 39.7312C98.8453 40.0826 98.7709 40.4593 98.7715 40.8395V51.1048C98.7709 51.4851 98.8453 51.8617 98.9905 52.2131C99.1358 52.5645 99.3489 52.8838 99.6178 53.1527C99.8867 53.4216 100.206 53.6347 100.557 53.7799C100.909 53.9252 101.285 53.9996 101.666 53.999H111.908C112.289 54.0002 112.666 53.9262 113.018 53.7813C113.37 53.6363 113.689 53.4232 113.959 53.1543C114.228 52.8854 114.442 52.5659 114.587 52.2142C114.733 51.8625 114.807 51.4855 114.807 51.1048V40.8395C114.807 40.4589 114.733 40.0819 114.587 39.7302C114.442 39.3785 114.228 39.059 113.959 38.79C113.689 38.5211 113.37 38.308 113.018 38.1631C112.666 38.0181 112.289 37.9441 111.908 37.9453H101.666Z" fill="white"/>
<path d="M257.129 12.437C257.129 12.471 257.123 12.5048 257.11 12.5364C257.098 12.5679 257.079 12.5966 257.055 12.6206C257.03 12.6447 257.002 12.6636 256.97 12.6763C256.939 12.6891 256.905 12.6953 256.871 12.6947H240.504C240.47 12.6959 240.436 12.6902 240.404 12.6777C240.372 12.6653 240.342 12.6464 240.318 12.6223C240.293 12.5982 240.274 12.5693 240.261 12.5375C240.248 12.5056 240.241 12.4714 240.242 12.437V5.2361C240.241 5.20131 240.247 5.16663 240.259 5.13422C240.272 5.10182 240.291 5.0724 240.316 5.04778C240.341 5.02317 240.37 5.00389 240.403 4.99117C240.435 4.97844 240.47 4.97253 240.504 4.97382H256.871C256.905 4.97317 256.94 4.97956 256.971 4.99257C257.003 5.00558 257.032 5.02495 257.056 5.04949C257.08 5.07404 257.099 5.10325 257.112 5.13533C257.124 5.16742 257.13 5.20171 257.129 5.2361V12.437ZM235.342 0.078125V26.7652H240.224V17.6042L240.334 17.641L256.853 17.6042C258.223 17.6018 259.538 17.0588 260.51 16.0931C261.483 15.1273 262.035 13.8168 262.047 12.4462V5.2361C262.035 3.86549 261.483 2.55501 260.51 1.58926C259.538 0.623517 258.223 0.0804952 256.853 0.078125H235.342Z" fill="white"/>
<path d="M111.701 21.8604C111.667 21.8611 111.633 21.8548 111.602 21.8421C111.57 21.8294 111.542 21.8104 111.518 21.7864C111.493 21.7623 111.475 21.7336 111.462 21.7021C111.449 21.6706 111.443 21.6368 111.443 21.6028V5.18099C111.442 5.1466 111.448 5.11231 111.46 5.08023C111.473 5.04815 111.492 5.01894 111.516 4.99439C111.54 4.96984 111.569 4.95048 111.601 4.93747C111.633 4.92446 111.667 4.91807 111.701 4.91872H128.109C128.173 4.92569 128.231 4.95682 128.272 5.00565C128.313 5.05448 128.334 5.11728 128.33 5.18099V21.6212C128.334 21.6844 128.313 21.7466 128.272 21.7947C128.23 21.8428 128.172 21.873 128.109 21.8788L111.701 21.8604ZM111.701 8.40586e-06C111.021 -0.00121963 110.348 0.132119 109.72 0.392337C109.093 0.652555 108.523 1.03451 108.043 1.51616C107.563 1.99781 107.184 2.56962 106.927 3.19862C106.669 3.82763 106.539 4.50137 106.543 5.18099V21.6212C106.542 22.2989 106.675 22.9701 106.933 23.5965C107.192 24.2228 107.572 24.7919 108.051 25.2711C108.53 25.7503 109.099 26.1302 109.726 26.389C110.352 26.6478 111.023 26.7804 111.701 26.7792H128.109C129.476 26.7755 130.786 26.2309 131.752 25.2644C132.719 24.2979 133.263 22.988 133.267 21.6212V5.18099C133.265 3.81334 132.721 2.50232 131.754 1.53481C130.787 0.567296 129.477 0.0220654 128.109 0.0184172L111.701 8.40586e-06Z" fill="white"/>
<path fill-rule="evenodd" clip-rule="evenodd" d="M4.67021 32.0016C10.1123 19.842 19.8419 10.1124 32.0015 4.67028C32.5143 4.4443 32.9337 4.04858 33.189 3.5497C33.4444 3.05082 33.5201 2.47921 33.4034 1.93106C33.2868 1.3829 32.9849 0.891665 32.5486 0.539973C32.1122 0.188281 31.5681 -0.00240301 31.0076 2.28635e-05H2.44321C1.79597 0.00244703 1.17592 0.260645 0.718244 0.718319C0.26057 1.17599 0.00238599 1.79603 -3.817e-05 2.44327V31.0077C-0.00246404 31.5681 0.188206 32.1123 0.539898 32.5486C0.89159 32.9849 1.38283 33.2868 1.93098 33.4035C2.47913 33.5201 3.05074 33.4444 3.54962 33.1891C4.04851 32.9338 4.44423 32.5144 4.67021 32.0016Z" fill="white"/>
<path fill-rule="evenodd" clip-rule="evenodd" d="M51.3272 26.568C44.9713 27.1889 39.0282 29.9969 34.5125 34.5125C29.9969 39.0282 27.1889 44.9713 26.568 51.3272C26.5352 51.6658 26.5737 52.0075 26.6809 52.3304C26.7881 52.6533 26.9617 52.9501 27.1906 53.2019C27.4194 53.4537 27.6983 53.6548 28.0095 53.7923C28.3207 53.9299 28.6572 54.0008 28.9974 54.0005H51.5434C52.1898 53.9993 52.8094 53.7419 53.2665 53.2849C53.7235 52.8278 53.9809 52.2082 53.9821 51.5618V28.9928C53.9817 28.653 53.9104 28.317 53.7725 28.0063C53.6347 27.6957 53.4335 27.4173 53.1818 27.189C52.9301 26.9607 52.6335 26.7875 52.3109 26.6806C51.9884 26.5736 51.647 26.5353 51.3088 26.568" fill="white"/>
<path d="M265.4 0V4.90031H276.315V26.7607H281.252V4.90031H292.124V0H265.4Z" fill="white"/>
<path d="M229.51 0.0371094H204.939V26.761H229.51V21.8607H209.877V15.8469H225.686V10.9512H209.877V4.93742H229.51V0.0371094Z" fill="white"/>
<path d="M198.962 4.90033V8.40586e-06H177.474C176.795 -0.00121963 176.122 0.132119 175.494 0.392337C174.866 0.652555 174.296 1.03451 173.816 1.51616C173.337 1.99781 172.957 2.56962 172.7 3.19862C172.443 3.82763 172.312 4.50137 172.317 5.18099V21.6212C172.315 22.2989 172.448 22.9701 172.707 23.5965C172.965 24.2228 173.345 24.7919 173.825 25.2711C174.304 25.7503 174.873 26.1302 175.499 26.389C176.126 26.6478 176.797 26.7804 177.474 26.7792H198.962V21.8604H177.474C177.44 21.8611 177.406 21.8548 177.374 21.8422C177.343 21.8295 177.314 21.8106 177.289 21.7866C177.265 21.7626 177.246 21.734 177.232 21.7025C177.219 21.6709 177.212 21.637 177.212 21.6028V5.18099C177.212 5.14638 177.218 5.11199 177.231 5.07989C177.244 5.04779 177.263 5.01863 177.288 4.99415C177.312 4.96967 177.341 4.95037 177.373 4.93741C177.405 4.92445 177.44 4.9181 177.474 4.91872L198.962 4.90033Z" fill="white"/>
<path d="M161.174 19.6196L144.733 0H139.387V26.7607H144.287V7.1365L160.764 26.7607H166.111V0H161.174V19.6196Z" fill="white"/>
<path d="M100.71 4.90033V8.40587e-06H79.2225C78.5429 -0.00121963 77.8697 0.132119 77.2419 0.392337C76.614 0.652556 76.0439 1.03451 75.5644 1.51616C75.0849 1.99781 74.7055 2.56962 74.4481 3.19863C74.1906 3.82763 74.0603 4.50137 74.0646 5.18099V21.6212C74.0658 22.2973 74.2001 22.9666 74.46 23.5908C74.7199 24.215 75.1001 24.782 75.5791 25.2592C76.0581 25.7365 76.6263 26.1147 77.2515 26.3724C77.8766 26.63 78.5464 26.762 79.2225 26.7607H100.71V21.8604H79.2225C79.1883 21.8611 79.1543 21.8548 79.1225 21.8422C79.0907 21.8295 79.0618 21.8106 79.0373 21.7866C79.0129 21.7626 78.9935 21.734 78.9803 21.7025C78.9671 21.6709 78.9602 21.637 78.9603 21.6028V5.18099C78.9596 5.14638 78.966 5.112 78.9789 5.07989C78.9919 5.04779 79.0112 5.01863 79.0357 4.99415C79.0602 4.96967 79.0893 4.95037 79.1214 4.93741C79.1535 4.92445 79.1879 4.9181 79.2225 4.91872L100.71 4.90033Z" fill="white"/>
<path d="M292.128 40.8395C292.129 40.4593 292.054 40.0826 291.909 39.7312C291.764 39.3798 291.551 39.0605 291.282 38.7916C291.013 38.5228 290.694 38.3096 290.342 38.1644C289.991 38.0192 289.614 37.9447 289.234 37.9453H278.992C278.226 37.9478 277.493 38.2539 276.953 38.7965C276.413 39.3392 276.11 40.0739 276.111 40.8395V44.2904C276.11 44.6712 276.183 45.0486 276.328 45.4008C276.473 45.753 276.686 46.0731 276.955 46.3426C277.224 46.6121 277.544 46.8256 277.895 46.9709C278.247 47.1162 278.625 47.1904 279.006 47.1892H289.248C289.378 47.1904 289.503 47.2426 289.595 47.3347C289.687 47.4268 289.739 47.5513 289.74 47.6815V51.1094C289.739 51.2396 289.687 51.3642 289.595 51.4562C289.503 51.5483 289.378 51.6006 289.248 51.6018H278.992C278.862 51.6006 278.737 51.5483 278.645 51.4562C278.553 51.3642 278.501 51.2396 278.499 51.1094V50.1892H276.111V51.1094C276.11 51.4898 276.184 51.8667 276.329 52.2184C276.474 52.5701 276.687 52.8896 276.956 53.1586C277.225 53.4276 277.545 53.6408 277.897 53.7858C278.248 53.9308 278.625 54.0048 279.006 54.0036H289.248C289.628 54.0048 290.005 53.9308 290.357 53.7858C290.709 53.6408 291.028 53.4276 291.297 53.1586C291.566 52.8896 291.779 52.5701 291.924 52.2184C292.069 51.8667 292.143 51.4898 292.142 51.1094V47.6815C292.143 47.3011 292.069 46.9242 291.924 46.5725C291.779 46.2208 291.566 45.9013 291.297 45.6323C291.028 45.3633 290.709 45.1502 290.357 45.0052C290.005 44.8602 289.628 44.7861 289.248 44.7873H278.992C278.862 44.7861 278.737 44.7339 278.645 44.6418C278.553 44.5498 278.501 44.4252 278.499 44.295V40.8441C278.501 40.7139 278.553 40.5894 278.645 40.4973C278.737 40.4052 278.862 40.353 278.992 40.3518H289.234C289.364 40.353 289.489 40.4052 289.581 40.4973C289.673 40.5894 289.725 40.7139 289.726 40.8441V41.7643H292.128V40.8395Z" fill="white"/>
<path d="M264.728 37.9414L259.004 44.7788H254.55V37.9414H252.148V53.9997H254.55V47.1853H259.004L264.728 53.9997H267.581V53.6638L261.144 45.9798L267.581 38.2819V37.9414H264.728Z" fill="white"/>
<path d="M191.814 37.9414L187.558 49.6469L183.307 37.9414H180.744L176.492 49.6469L172.236 37.9414H169.678L175.512 53.9997H177.449L177.426 53.9767L177.472 53.9997L182.014 41.489L186.578 53.9997H188.538L194.373 37.9414H191.814Z" fill="white"/>
<path d="M146.107 37.9414V40.3478H152.922V53.9997H155.328V40.3478H162.143V37.9414H146.107Z" fill="white"/>
<path d="M123.631 37.9414V53.9997H126.037V47.1853H135.925V44.7788H126.037V40.3478H138.327V37.9414H123.631Z" fill="white"/>
<path d="M90.0951 40.8395C90.0958 40.4593 90.0213 40.0826 89.8761 39.7312C89.7309 39.3798 89.5177 39.0605 89.2488 38.7916C88.9799 38.5228 88.6607 38.3096 88.3093 38.1644C87.9578 38.0192 87.5812 37.9447 87.201 37.9453H76.9586C76.5784 37.9447 76.2018 38.0192 75.8504 38.1644C75.499 38.3096 75.1797 38.5228 74.9108 38.7916C74.6419 39.0605 74.4288 39.3798 74.2836 39.7312C74.1383 40.0826 74.0639 40.4593 74.0645 40.8395V44.2904C74.0627 44.6712 74.1362 45.0486 74.281 45.4008C74.4257 45.753 74.6388 46.0731 74.9078 46.3426C75.1769 46.6121 75.4966 46.8256 75.8486 46.9709C76.2006 47.1162 76.5779 47.1904 76.9586 47.1892H87.201C87.3312 47.1904 87.4557 47.2426 87.5478 47.3347C87.6399 47.4268 87.6921 47.5513 87.6933 47.6815V51.1094C87.6921 51.2396 87.6399 51.3642 87.5478 51.4562C87.4557 51.5483 87.3312 51.6006 87.201 51.6018H76.9586C76.8284 51.6006 76.7039 51.5483 76.6118 51.4562C76.5198 51.3642 76.4675 51.2396 76.4663 51.1094V50.1892H74.0645V51.1094C74.0633 51.4898 74.1373 51.8667 74.2823 52.2184C74.4273 52.5701 74.6405 52.8896 74.9095 53.1586C75.1784 53.4276 75.498 53.6408 75.8497 53.7858C76.2014 53.9308 76.5782 54.0048 76.9586 54.0036H87.201C87.5814 54.0048 87.9583 53.9308 88.31 53.7858C88.6617 53.6408 88.9812 53.4276 89.2502 53.1586C89.5192 52.8896 89.7323 52.5701 89.8773 52.2184C90.0223 51.8667 90.0964 51.4898 90.0951 51.1094V47.6815C90.0964 47.3011 90.0223 46.9242 89.8773 46.5725C89.7323 46.2208 89.5192 45.9013 89.2502 45.6323C88.9812 45.3633 88.6617 45.1502 88.31 45.0052C87.9583 44.8602 87.5814 44.7861 87.201 44.7873H76.9586C76.8284 44.7861 76.7039 44.7339 76.6118 44.6418C76.5198 44.5498 76.4675 44.4252 76.4663 44.295V40.8441C76.4675 40.7139 76.5198 40.5894 76.6118 40.4973C76.7039 40.4052 76.8284 40.353 76.9586 40.3518H87.201C87.3312 40.353 87.4557 40.4052 87.5478 40.4973C87.6399 40.5894 87.6921 40.7139 87.6933 40.8441V41.7643H90.0951V40.8395Z" fill="white"/>
</g>
<defs>
<clipPath id="clip0_1_4786">
<rect width="292.127" height="54" fill="white"/>
</clipPath>
</defs>
</svg>
