<svg width="1376" height="738" fill="none" xmlns="http://www.w3.org/2000/svg"><g opacity=".7" stroke="#fff" stroke-miterlimit="10" stroke-linecap="round"><path d="M361.39 736.985c-28.981-173.936 84.478-360.483 343.421-392.806C913.472 318.088 1396 423.9 1455.41-13.841" stroke-width="1.5"/><path d="M340.089 728.434c-19.128-178.865 104.62-367.441 373.851-390.343 213.588-18.118 683.22 95.085 753.93-330.48" stroke-width="1.456"/><path d="M318.933 720.027c-9.419-183.793 124.762-374.689 404.426-387.879 218.515-10.291 675.251 110.305 757.121-303.084" stroke-width="1.412"/><path d="M297.632 711.62c.435-188.721 144.759-381.936 434.856-385.415 223.296-2.754 667.282 125.525 760.452-275.689" stroke-width="1.368"/><path d="M276.476 703.213c10.288-193.649 164.755-389.473 465.286-382.95 228.078 4.928 659.308 140.888 763.638-248.15" stroke-width="1.323"/><path d="M255.175 694.661c20.142-198.578 184.752-397.01 495.86-380.486 232.861 12.32 651.345 156.253 766.975-220.61" stroke-width="1.279"/><path d="M234.019 686.254c29.85-203.651 204.604-404.837 526.29-378.167C997.951 327.8 1403.68 479.559 1530.47 115.018" stroke-width="1.235"/><path d="M212.719 677.847c39.703-208.579 224.6-412.664 556.864-375.703 242.427 26.96 635.257 186.837 773.497-165.674" stroke-width="1.191"/><path d="M191.563 669.44c49.412-213.507 244.452-420.636 587.294-373.239 247.353 34.208 627.283 202.057 776.833-138.134" stroke-width="1.147"/><path d="M170.407 660.888c59.265-218.435 264.449-428.608 617.724-370.774 252.129 41.309 619.319 217.42 780.019-110.74" stroke-width="1.103"/><path d="M149.106 652.481c68.974-223.363 284.446-436.725 648.299-368.31 256.915 48.412 611.345 232.64 783.345-83.2" stroke-width="1.059"/><path d="M127.95 644.074c78.827-228.291 304.587-444.987 678.729-365.846 261.841 55.37 603.381 248.004 786.541-55.66" stroke-width="1.015"/><path d="M106.649 635.667c88.681-233.219 324.584-453.249 709.158-363.382 266.763 62.327 595.413 263.224 789.873-28.264" stroke-width=".971"/><path d="M85.493 627.116c98.39-238.148 344.726-461.657 739.588-360.919 271.549 69.285 587.439 278.589 793.059-.724" stroke-width=".926"/><path d="M64.192 618.709C172.435 375.632 429.06 148.645 834.355 260.11c276.475 76.097 579.465 293.807 796.395 26.67" stroke-width=".882"/><path d="M43.036 610.302c118.097-248.15 385.009-478.616 800.593-356.135 281.551 82.909 571.501 309.172 799.721 54.21" stroke-width=".838"/><path d="M21.735 601.895c127.806-253.078 405.441-487.747 831.168-353.671 286.617 89.432 563.527 324.391 802.907 81.75" stroke-width=".794"/><path d="M.58 593.488C138.238 335.482 426.162 97.769 862.177 242.281c291.403 96.535 555.563 339.756 806.243 109.145" stroke-width=".75"/></g></svg>