<svg width="1256" height="816" fill="none" xmlns="http://www.w3.org/2000/svg"><g opacity=".7" stroke="#fff" stroke-miterlimit="10" stroke-linecap="round"><path d="M442.083 657.61c-98.255-118.921-70.645-550.125 186.028-553.503 220.996-2.895 360.7 122.746 437.239 211.279 65.81 76.046 136.49 213.108 136.49 213.108" stroke-width="1.5"/><path d="M415.661 647.28c-88.466-123.378-53.816-535.865 197.459-539.783 215.926-3.382 355.229 117.829 432.55 206.377 69 78.466 141.14 216.884 143.34 228.882" stroke-width="1.458"/><path d="M389.33 637.077c-78.785-127.853-36.986-521.606 208.782-526.081 210.947-3.741 349.596 113.222 427.988 201.384 71.95 80.959 145.77 220.769 150.09 244.53" stroke-width="1.417"/><path d="M362.889 626.857c-68.867-132.402-20.029-507.438 220.215-512.362 205.859-4.118 343.998 108.396 423.406 196.499 75.03 83.362 150.31 224.528 156.83 260.287" stroke-width="1.375"/><path d="M336.576 616.545c-59.204-136.768-3.217-493.07 231.629-498.533 200.789-4.605 338.509 103.588 418.717 191.596 78.108 85.765 154.958 228.305 163.688 275.953" stroke-width="1.333"/><path d="M310.136 606.324c-49.396-141.334 13.74-478.902 243.061-484.813 195.81-4.964 333.037 98.671 414.136 186.712 81.297 88.185 159.607 232.081 170.427 291.709" stroke-width="1.292"/><path d="M283.695 596.104c-39.606-145.792 30.57-464.643 254.385-471.111 190.957-5.416 327.675 93.771 409.572 181.718 84.378 90.587 164.258 235.857 177.288 307.374" stroke-width="1.25"/><path d="M257.382 585.792c-29.816-150.249 47.509-450.366 265.817-457.391 185.76-5.811 322.168 89.072 404.881 176.815 87.57 93.008 168.89 239.743 184.02 323.131" stroke-width="1.208"/><path d="M230.942 575.571C210.916 420.865 295.298 139.356 508.191 131.9c180.798-6.279 316.696 84.155 400.191 171.913 90.65 95.41 173.428 243.501 190.868 338.906" stroke-width="1.167"/><path d="M204.611 565.368c-10.327-159.29 81.295-421.938 288.572-429.969 175.819-6.639 311.334 79.256 395.61 167.028 93.857 97.722 178.077 247.278 197.627 354.554" stroke-width="1.125"/><path d="M178.188 555.039c-.445-163.621 98.234-407.662 299.987-416.14 170.748-7.126 305.862 74.338 390.937 162.016 97.065 100.033 182.728 251.054 204.468 370.328" stroke-width="1.083"/><path d="M151.857 544.836c9.253-168.205 115.082-393.511 311.436-402.53 165.661-7.502 300.391 69.422 386.339 157.241C949.887 402 1036.99 554.486 1060.85 685.523" stroke-width="1.042"/><path d="M125.417 534.615c19.043-172.662 131.911-379.252 322.868-388.809 160.699-7.972 295.029 64.521 381.667 152.229 103.461 104.764 191.898 258.698 217.958 401.733"/><path d="M99.103 524.303c28.834-177.119 148.851-364.975 334.192-375.107 155.72-8.331 289.666 59.622 377.085 147.344 106.669 107.076 196.55 262.474 224.82 417.398" stroke-width=".958"/><path d="M72.663 514.083c38.641-181.686 165.698-350.825 345.624-361.388 150.632-8.708 284.195 54.705 372.395 142.442 109.876 109.387 201.196 266.251 231.558 433.155" stroke-width=".917"/><path d="M46.223 503.862C94.654 317.719 228.86 167.314 403.279 156.194c145.67-9.177 278.833 49.806 367.814 137.558 113.21 111.606 205.844 270.026 238.417 448.82" stroke-width=".875"/><path d="M19.91 493.55C78.003 303.041 219.375 171.262 388.27 159.694c140.582-9.555 273.615 44.705 363.124 132.654C867.957 406.066 961.87 566.261 996.55 756.926" stroke-width=".833"/><path d="M-6.531 483.33C61.48 288.272 209.875 175.318 373.263 163.193c135.621-10.023 268.143 39.788 358.56 127.661 119.752 116.137 215.125 277.688 252.001 480.352" stroke-width=".792"/><path d="M-32.862 473.127C109.087 108.6 510.755 95.375 712.234 289.468c122.959 118.449 219.664 281.447 258.755 496" stroke-width=".75"/></g></svg>