<svg width="84" height="68" fill="none" xmlns="http://www.w3.org/2000/svg"><g fill="#24A556"><path d="M19.654 66.917c-2.44-.542-4.402-1.69-5.885-3.441-1.483-1.752-2.225-4.356-2.226-7.813v-3.559c0-4.331-.189-7.36-.566-9.088-.378-1.727-1.346-2.966-2.904-3.716-1.43-.685-3.815-1.055-7.152-1.111a.923.923 0 0 1-.652-.286A.97.97 0 0 1 0 37.23v-6.066a.97.97 0 0 1 .27-.673.923.923 0 0 1 .651-.285c3.291-.059 5.663-.443 7.115-1.152 1.584-.774 2.565-2.063 2.942-3.868.377-1.805.566-4.873.566-9.205v-3.094c0-3.506.742-6.136 2.226-7.89 1.484-1.753 3.446-2.887 5.885-3.4 2.237-.472 5.078-.728 8.522-.768a.916.916 0 0 1 .665.277.96.96 0 0 1 .278.681v5.05a.97.97 0 0 1-.264.667.924.924 0 0 1-.643.29c-2.125.063-3.784.356-4.976.878-1.358.593-2.302 1.547-2.83 2.861-.528 1.315-.792 3.158-.792 5.53v5.88c0 3.352-.452 5.892-1.358 7.62-.905 1.727-2.514 2.926-4.826 3.596 2.312.62 3.921 1.767 4.826 3.442.906 1.675 1.358 4.19 1.358 7.542v6.345c0 2.372.264 4.215.792 5.53.528 1.314 1.471 2.268 2.83 2.863 1.193.52 2.851.812 4.976.876a.924.924 0 0 1 .643.29.97.97 0 0 1 .264.668v5.052a.977.977 0 0 1-.278.68.931.931 0 0 1-.668.276c-3.444-.04-6.285-.31-8.52-.806ZM64.347 66.917c2.44-.542 4.4-1.69 5.884-3.441 1.483-1.752 2.225-4.356 2.226-7.813v-3.559c0-4.331.189-7.36.566-9.088.378-1.727 1.346-2.966 2.904-3.716 1.43-.685 3.815-1.055 7.152-1.111a.924.924 0 0 0 .652-.286.971.971 0 0 0 .269-.673v-6.066a.97.97 0 0 0-.27-.673.923.923 0 0 0-.651-.285c-3.291-.059-5.663-.443-7.115-1.152-1.584-.774-2.565-2.063-2.942-3.868-.377-1.805-.566-4.873-.566-9.205v-3.094c0-3.506-.742-6.136-2.226-7.89-1.484-1.753-3.446-2.887-5.885-3.4-2.237-.472-5.078-.728-8.522-.768a.916.916 0 0 0-.665.277.96.96 0 0 0-.278.681v5.05c0 .249.095.488.264.667.17.18.4.283.643.29 2.125.063 3.784.356 4.976.878 1.358.593 2.302 1.547 2.83 2.861.528 1.315.792 3.158.792 5.53v5.88c0 3.352.452 5.892 1.358 7.62.905 1.727 2.514 2.926 4.826 3.596-2.312.62-3.921 1.767-4.826 3.442-.906 1.675-1.358 4.19-1.358 7.542v6.345c0 2.372-.264 4.215-.792 5.53-.528 1.314-1.471 2.268-2.83 2.863-1.193.52-2.851.812-4.976.876a.924.924 0 0 0-.643.29.97.97 0 0 0-.264.668v5.052a.977.977 0 0 0 .278.68.931.931 0 0 0 .668.276c3.444-.04 6.285-.31 8.52-.806Z"/></g></svg>